<svg xmlns="http://www.w3.org/2000/svg" xmlns:xlink="http://www.w3.org/1999/xlink" width="300" zoomAndPan="magnify" viewBox="0 0 224.87999 74.999997" height="100" preserveAspectRatio="xMidYMid meet" version="1.0"><defs><g/></defs><g fill="#859994" fill-opacity="1"><g transform="translate(2.419336, 45.490114)"><g><path d="M 0 3.28125 C 0.0195312 1.875 0.617188 -0.628906 1.796875 -4.234375 C 2.992188 -7.828125 4.632812 -12.09375 6.71875 -17.03125 C 7.09375 -17.957031 7.414062 -18.765625 7.6875 -19.453125 C 7.9375 -20.140625 8.039062 -20.492188 8 -20.515625 C 7.957031 -20.546875 7.648438 -20.550781 7.078125 -20.53125 C 6.492188 -20.5 5.8125 -20.460938 5.03125 -20.421875 C 4.207031 -20.347656 3.492188 -20.320312 2.890625 -20.34375 C 2.253906 -20.351562 1.875 -20.398438 1.75 -20.484375 C 1.414062 -20.671875 1.25 -20.925781 1.25 -21.25 C 1.25 -21.59375 1.414062 -21.90625 1.75 -22.1875 C 1.914062 -22.320312 2.171875 -22.445312 2.515625 -22.5625 C 2.878906 -22.675781 3.507812 -22.8125 4.40625 -22.96875 C 4.894531 -23.0625 5.484375 -23.164062 6.171875 -23.28125 C 6.859375 -23.375 7.65625 -23.5 8.5625 -23.65625 C 10.644531 -23.957031 12.410156 -24.1875 13.859375 -24.34375 C 15.265625 -24.488281 16.347656 -24.5625 17.109375 -24.5625 L 17.171875 -24.5625 C 18.460938 -24.5625 19.359375 -24.503906 19.859375 -24.390625 C 20.179688 -24.335938 20.34375 -24.253906 20.34375 -24.140625 C 20.351562 -24.078125 20.3125 -24.007812 20.21875 -23.9375 C 19.988281 -23.78125 19.515625 -23.5625 18.796875 -23.28125 C 18.066406 -23.007812 17.226562 -22.734375 16.28125 -22.453125 C 15.789062 -22.273438 15.265625 -22.113281 14.703125 -21.96875 C 14.148438 -21.8125 13.609375 -21.664062 13.078125 -21.53125 C 12.390625 -21.363281 11.351562 -21.109375 9.96875 -20.765625 C 9.78125 -20.191406 9.484375 -19.335938 9.078125 -18.203125 C 8.566406 -16.648438 7.988281 -14.988281 7.34375 -13.21875 C 6.695312 -11.46875 6.039062 -9.71875 5.375 -7.96875 C 4.945312 -6.84375 4.523438 -5.75 4.109375 -4.6875 C 3.691406 -3.613281 3.289062 -2.613281 2.90625 -1.6875 C 2.207031 0.0625 1.609375 1.488281 1.109375 2.59375 C 0.617188 3.695312 0.328125 4.257812 0.234375 4.28125 C 0.148438 4.300781 0.09375 4.207031 0.0625 4 C 0.0195312 3.820312 0 3.613281 0 3.375 Z M 0 3.28125 "/></g></g></g><g fill="#859994" fill-opacity="1"><g transform="translate(16.473594, 45.490114)"><g><path d="M 3.40625 -10.3125 C 4.082031 -9.8125 4.453125 -9.304688 4.515625 -8.796875 C 4.554688 -8.285156 4.554688 -7.859375 4.515625 -7.515625 C 4.878906 -7.429688 5.59375 -7.441406 6.65625 -7.546875 C 7.707031 -7.617188 8.925781 -7.738281 10.3125 -7.90625 C 11.644531 -8.082031 12.796875 -8.207031 13.765625 -8.28125 C 14.734375 -8.34375 15.238281 -8.34375 15.28125 -8.28125 L 15.28125 -8.25 C 15.28125 -8.195312 15.222656 -8.132812 15.109375 -8.0625 C 14.972656 -7.957031 14.789062 -7.847656 14.5625 -7.734375 C 14.101562 -7.503906 13.492188 -7.257812 12.734375 -7 C 11.992188 -6.75 11.253906 -6.53125 10.515625 -6.34375 C 10.191406 -6.269531 9.8125 -6.191406 9.375 -6.109375 C 8.9375 -6.035156 8.488281 -5.96875 8.03125 -5.90625 C 7.15625 -5.8125 6.304688 -5.75 5.484375 -5.71875 C 4.679688 -5.695312 4.1875 -5.734375 4 -5.828125 C 3.882812 -5.691406 3.742188 -5.5 3.578125 -5.25 C 3.398438 -4.988281 3.21875 -4.769531 3.03125 -4.59375 C 2.5 -4.082031 1.957031 -3.757812 1.40625 -3.625 C 1.226562 -3.570312 1.066406 -3.546875 0.921875 -3.546875 C 0.554688 -3.546875 0.226562 -3.660156 -0.0625 -3.890625 C -0.414062 -4.171875 -0.648438 -4.644531 -0.765625 -5.3125 C -0.804688 -5.539062 -0.828125 -5.78125 -0.828125 -6.03125 C -0.828125 -6.445312 -0.757812 -6.851562 -0.625 -7.25 C -0.4375 -7.769531 -0.148438 -8.363281 0.234375 -9.03125 C 0.609375 -9.71875 1.054688 -10.203125 1.578125 -10.484375 C 1.835938 -10.640625 2.113281 -10.71875 2.40625 -10.71875 L 2.453125 -10.71875 C 2.753906 -10.71875 3.070312 -10.582031 3.40625 -10.3125 Z M 2 -9.453125 C 2.039062 -9.171875 2.203125 -8.875 2.484375 -8.5625 C 2.765625 -8.257812 3.03125 -8.0625 3.28125 -7.96875 C 3.394531 -8.144531 3.453125 -8.316406 3.453125 -8.484375 C 3.453125 -8.671875 3.378906 -8.851562 3.234375 -9.03125 C 3.003906 -9.332031 2.707031 -9.484375 2.34375 -9.484375 L 2.171875 -9.484375 C 2.148438 -9.484375 2.117188 -9.472656 2.078125 -9.453125 Z M 0.6875 -5.203125 C 0.78125 -5.117188 0.894531 -5.078125 1.03125 -5.078125 C 1.125 -5.078125 1.226562 -5.097656 1.34375 -5.140625 C 1.613281 -5.234375 1.851562 -5.40625 2.0625 -5.65625 C 2.175781 -5.789062 2.296875 -5.941406 2.421875 -6.109375 C 2.535156 -6.285156 2.59375 -6.410156 2.59375 -6.484375 C 2.425781 -6.578125 2.179688 -6.769531 1.859375 -7.0625 C 1.535156 -7.34375 1.269531 -7.691406 1.0625 -8.109375 C 0.769531 -7.804688 0.578125 -7.289062 0.484375 -6.5625 C 0.460938 -6.351562 0.453125 -6.175781 0.453125 -6.03125 C 0.453125 -5.613281 0.53125 -5.335938 0.6875 -5.203125 Z M 3.625 -12.34375 C 3.53125 -12.375 3.484375 -12.488281 3.484375 -12.6875 C 3.523438 -12.800781 3.554688 -12.894531 3.578125 -12.96875 C 3.609375 -13.132812 3.703125 -13.375 3.859375 -13.6875 C 3.992188 -13.988281 4.164062 -14.359375 4.375 -14.796875 L 5 -16.109375 C 5.09375 -16.285156 5.175781 -16.445312 5.25 -16.59375 C 5.3125 -16.726562 5.363281 -16.863281 5.40625 -17 C 5.5 -17.1875 5.5625 -17.375 5.59375 -17.5625 C 5.632812 -17.625 5.679688 -17.691406 5.734375 -17.765625 C 5.773438 -17.828125 5.816406 -17.882812 5.859375 -17.9375 C 5.953125 -18.03125 6.054688 -18.144531 6.171875 -18.28125 C 6.285156 -18.414062 6.414062 -18.484375 6.5625 -18.484375 C 6.664062 -18.460938 6.753906 -18.421875 6.828125 -18.359375 C 6.878906 -18.304688 6.9375 -18.253906 7 -18.203125 C 7.132812 -18.046875 7.226562 -17.863281 7.28125 -17.65625 C 7.207031 -16.945312 6.960938 -16.1875 6.546875 -15.375 C 6.117188 -14.570312 5.570312 -13.816406 4.90625 -13.109375 C 4.71875 -12.921875 4.554688 -12.769531 4.421875 -12.65625 C 4.273438 -12.539062 4.160156 -12.453125 4.078125 -12.390625 C 3.960938 -12.296875 3.859375 -12.269531 3.765625 -12.3125 C 3.734375 -12.3125 3.71875 -12.320312 3.71875 -12.34375 C 3.695312 -12.34375 3.664062 -12.34375 3.625 -12.34375 Z M 3.625 -12.34375 "/></g></g></g><g fill="#859994" fill-opacity="1"><g transform="translate(31.013468, 45.490114)"><g><path d="M 11.171875 -18.796875 C 10.992188 -18.523438 10.773438 -18.238281 10.515625 -17.9375 C 10.265625 -17.632812 9.988281 -17.332031 9.6875 -17.03125 C 9.132812 -16.457031 8.539062 -15.90625 7.90625 -15.375 C 7.300781 -14.832031 6.769531 -14.410156 6.3125 -14.109375 C 5.59375 -13.628906 5.039062 -13.238281 4.65625 -12.9375 C 4.289062 -12.65625 4.109375 -12.4375 4.109375 -12.28125 L 5.203125 -12.28125 C 5.671875 -12.300781 6.109375 -12.289062 6.515625 -12.25 C 7.179688 -12.25 7.804688 -12.222656 8.390625 -12.171875 C 8.984375 -12.109375 9.253906 -11.984375 9.203125 -11.796875 C 9.203125 -11.660156 8.960938 -11.523438 8.484375 -11.390625 C 8.003906 -11.265625 7.359375 -11.144531 6.546875 -11.03125 C 6.066406 -10.945312 5.5625 -10.867188 5.03125 -10.796875 C 4.476562 -10.742188 3.941406 -10.664062 3.421875 -10.5625 C 3.273438 -10.238281 3.039062 -9.753906 2.71875 -9.109375 C 2.582031 -8.828125 2.445312 -8.515625 2.3125 -8.171875 C 2.195312 -7.804688 2.09375 -7.4375 2 -7.0625 C 1.8125 -6.375 1.675781 -5.710938 1.59375 -5.078125 C 1.519531 -4.453125 1.519531 -4.054688 1.59375 -3.890625 C 1.707031 -3.597656 1.851562 -3.394531 2.03125 -3.28125 C 2.195312 -3.164062 2.773438 -3.347656 3.765625 -3.828125 C 4.191406 -4.035156 4.71875 -4.3125 5.34375 -4.65625 C 5.96875 -5 6.71875 -5.414062 7.59375 -5.90625 C 9.570312 -7.050781 11.132812 -7.796875 12.28125 -8.140625 C 13.425781 -8.484375 14.234375 -8.632812 14.703125 -8.59375 C 14.835938 -8.570312 14.914062 -8.535156 14.9375 -8.484375 L 14.9375 -8.453125 C 14.957031 -8.398438 14.921875 -8.351562 14.828125 -8.3125 C 14.460938 -8.101562 13.820312 -7.769531 12.90625 -7.3125 C 12 -6.875 10.984375 -6.285156 9.859375 -5.546875 C 8.179688 -4.421875 6.953125 -3.617188 6.171875 -3.140625 C 5.390625 -2.660156 4.6875 -2.25 4.0625 -1.90625 C 3.144531 -1.394531 2.304688 -1.101562 1.546875 -1.03125 L 1.3125 -1.03125 C 0.664062 -1.007812 0.160156 -1.265625 -0.203125 -1.796875 C -0.390625 -2.046875 -0.503906 -2.5625 -0.546875 -3.34375 C -0.578125 -4.125 -0.546875 -4.953125 -0.453125 -5.828125 C -0.421875 -6.285156 -0.351562 -6.734375 -0.25 -7.171875 C -0.15625 -7.585938 -0.046875 -7.96875 0.078125 -8.3125 C 0.296875 -8.84375 0.5 -9.3125 0.6875 -9.71875 C 0.875 -10.113281 0.96875 -10.390625 0.96875 -10.546875 C 0.820312 -10.554688 0.632812 -10.5625 0.40625 -10.5625 C 0.15625 -10.5625 -0.00390625 -10.59375 -0.078125 -10.65625 C -0.410156 -10.882812 -0.578125 -11.1875 -0.578125 -11.5625 L -0.578125 -11.6875 C -0.535156 -12.125 -0.148438 -12.320312 0.578125 -12.28125 L 1.75 -12.28125 L 2.25 -13.140625 C 2.425781 -13.441406 2.628906 -13.796875 2.859375 -14.203125 C 3.410156 -15.203125 4.09375 -16.25 4.90625 -17.34375 C 5.707031 -18.425781 6.5 -19.394531 7.28125 -20.25 C 7.6875 -20.707031 8.066406 -21.117188 8.421875 -21.484375 C 8.804688 -21.835938 9.140625 -22.113281 9.421875 -22.3125 C 9.734375 -22.539062 10.019531 -22.710938 10.28125 -22.828125 C 10.550781 -22.941406 10.789062 -23 11 -23 L 11.046875 -23 C 11.640625 -23.007812 11.992188 -22.578125 12.109375 -21.703125 C 12.222656 -20.804688 11.910156 -19.835938 11.171875 -18.796875 Z M 9.390625 -20.484375 C 9.179688 -20.273438 8.90625 -19.976562 8.5625 -19.59375 C 8.226562 -19.21875 7.878906 -18.816406 7.515625 -18.390625 C 6.984375 -17.742188 6.488281 -17.132812 6.03125 -16.5625 C 5.59375 -15.976562 5.375 -15.640625 5.375 -15.546875 C 5.375 -15.484375 5.390625 -15.453125 5.421875 -15.453125 C 5.554688 -15.453125 5.851562 -15.644531 6.3125 -16.03125 C 6.9375 -16.539062 7.554688 -17.128906 8.171875 -17.796875 C 8.890625 -18.597656 9.460938 -19.300781 9.890625 -19.90625 C 10.265625 -20.457031 10.453125 -20.835938 10.453125 -21.046875 C 10.453125 -21.066406 10.441406 -21.085938 10.421875 -21.109375 L 10.421875 -21.140625 C 10.421875 -21.160156 10.410156 -21.171875 10.390625 -21.171875 L 10.375 -21.171875 C 10.289062 -21.171875 10.175781 -21.113281 10.03125 -21 C 9.832031 -20.863281 9.617188 -20.691406 9.390625 -20.484375 Z M 9.390625 -20.484375 "/></g></g></g><g fill="#859994" fill-opacity="1"><g transform="translate(45.067726, 45.490114)"><g><path d="M 12.03125 -23.5625 C 12.40625 -23.257812 12.582031 -22.832031 12.5625 -22.28125 C 12.550781 -21.75 12.328125 -20.929688 11.890625 -19.828125 C 11.710938 -19.390625 11.460938 -18.910156 11.140625 -18.390625 C 10.835938 -17.859375 10.484375 -17.316406 10.078125 -16.765625 C 9.316406 -15.753906 8.472656 -14.753906 7.546875 -13.765625 C 6.609375 -12.796875 5.722656 -12.023438 4.890625 -11.453125 C 4.273438 -11.035156 3.835938 -10.691406 3.578125 -10.421875 C 3.304688 -10.179688 3.046875 -9.789062 2.796875 -9.25 C 2.703125 -9.082031 2.609375 -8.882812 2.515625 -8.65625 C 2.421875 -8.445312 2.316406 -8.195312 2.203125 -7.90625 C 1.398438 -6.019531 1.023438 -4.984375 1.078125 -4.796875 C 1.140625 -4.585938 1.664062 -5.054688 2.65625 -6.203125 C 3.6875 -7.378906 4.546875 -8.253906 5.234375 -8.828125 C 5.910156 -9.378906 6.476562 -9.675781 6.9375 -9.71875 C 7.644531 -9.769531 8.082031 -9.5 8.25 -8.90625 C 8.425781 -8.300781 8.34375 -7.351562 8 -6.0625 C 7.882812 -5.625 7.804688 -5.191406 7.765625 -4.765625 C 7.710938 -4.347656 7.703125 -4.046875 7.734375 -3.859375 C 7.847656 -3.242188 8.375 -3.09375 9.3125 -3.40625 C 10.226562 -3.6875 11.207031 -4.113281 12.25 -4.6875 C 13.113281 -5.144531 13.90625 -5.601562 14.625 -6.0625 C 15.34375 -6.53125 15.8125 -6.820312 16.03125 -6.9375 C 17.875 -8.007812 18.992188 -8.582031 19.390625 -8.65625 C 19.503906 -8.675781 19.5625 -8.65625 19.5625 -8.59375 C 19.5625 -8.457031 19.191406 -8.066406 18.453125 -7.421875 C 16.398438 -5.617188 14.5625 -4.226562 12.9375 -3.25 C 11.320312 -2.257812 9.941406 -1.726562 8.796875 -1.65625 C 7.671875 -1.5625 6.921875 -1.847656 6.546875 -2.515625 C 6.160156 -3.203125 6.128906 -4.296875 6.453125 -5.796875 C 6.703125 -6.859375 6.828125 -7.476562 6.828125 -7.65625 C 6.828125 -7.820312 6.703125 -7.898438 6.453125 -7.890625 C 6.285156 -7.867188 5.894531 -7.550781 5.28125 -6.9375 C 4.695312 -6.332031 4.070312 -5.609375 3.40625 -4.765625 L 2.3125 -3.40625 C 1.96875 -2.925781 1.65625 -2.46875 1.375 -2.03125 C 0.289062 -0.394531 -0.460938 0.691406 -0.890625 1.234375 C -1.285156 1.742188 -1.585938 2.007812 -1.796875 2.03125 L -1.828125 2.03125 C -1.984375 2.03125 -2.078125 1.925781 -2.109375 1.71875 C -2.148438 1.5625 -2.171875 1.273438 -2.171875 0.859375 C -2.171875 0.679688 -2.160156 0.5 -2.140625 0.3125 C -2.117188 -0.832031 -1.929688 -2.144531 -1.578125 -3.625 C -1.191406 -5.09375 -0.691406 -6.617188 -0.078125 -8.203125 C 0.296875 -9.222656 0.722656 -10.257812 1.203125 -11.3125 C 1.671875 -12.34375 2.175781 -13.34375 2.71875 -14.3125 C 3.6875 -16.132812 4.710938 -17.789062 5.796875 -19.28125 C 6.878906 -20.769531 7.925781 -21.894531 8.9375 -22.65625 C 9.4375 -23.007812 9.863281 -23.285156 10.21875 -23.484375 C 10.582031 -23.671875 10.898438 -23.785156 11.171875 -23.828125 L 11.28125 -23.828125 C 11.394531 -23.828125 11.507812 -23.804688 11.625 -23.765625 C 11.757812 -23.722656 11.894531 -23.65625 12.03125 -23.5625 Z M 10.3125 -22.109375 C 9.695312 -21.710938 8.9375 -20.875 8.03125 -19.59375 C 7.113281 -18.320312 6.273438 -16.960938 5.515625 -15.515625 C 4.617188 -13.753906 4.171875 -12.734375 4.171875 -12.453125 L 4.171875 -12.390625 C 4.171875 -12.378906 4.191406 -12.375 4.234375 -12.375 C 4.441406 -12.375 5.085938 -12.894531 6.171875 -13.9375 C 7.066406 -14.789062 7.929688 -15.789062 8.765625 -16.9375 C 9.609375 -18.101562 10.257812 -19.140625 10.71875 -20.046875 C 10.957031 -20.566406 11.125 -21.003906 11.21875 -21.359375 C 11.28125 -21.578125 11.3125 -21.757812 11.3125 -21.90625 C 11.3125 -22.019531 11.289062 -22.125 11.25 -22.21875 C 11.21875 -22.3125 11.179688 -22.378906 11.140625 -22.421875 C 11.097656 -22.460938 11.050781 -22.484375 11 -22.484375 L 10.96875 -22.484375 C 10.914062 -22.484375 10.832031 -22.453125 10.71875 -22.390625 C 10.613281 -22.335938 10.476562 -22.242188 10.3125 -22.109375 Z M 10.3125 -22.109375 "/></g></g></g><g fill="#859994" fill-opacity="1"><g transform="translate(63.863873, 45.490114)"><g/></g></g><g fill="#859994" fill-opacity="1"><g transform="translate(71.747969, 45.490114)"><g><path d="M 2.59375 0.6875 C 2.289062 0.550781 1.957031 0.253906 1.59375 -0.203125 C 1.238281 -0.640625 0.972656 -1.078125 0.796875 -1.515625 C 0.722656 -1.722656 0.664062 -2.066406 0.625 -2.546875 C 0.601562 -2.785156 0.59375 -3.019531 0.59375 -3.25 C 0.59375 -3.5 0.601562 -3.75 0.625 -4 C 0.71875 -5.351562 1.070312 -6.816406 1.6875 -8.390625 C 2.289062 -9.972656 3.0625 -11.554688 4 -13.140625 C 5.101562 -15.023438 6.359375 -16.796875 7.765625 -18.453125 C 9.191406 -20.128906 10.582031 -21.453125 11.9375 -22.421875 C 12.675781 -22.953125 13.390625 -23.351562 14.078125 -23.625 C 14.671875 -23.875 15.222656 -24 15.734375 -24 L 15.96875 -24 C 16.6875 -23.9375 17.191406 -23.722656 17.484375 -23.359375 C 17.785156 -23.003906 17.898438 -22.4375 17.828125 -21.65625 C 17.804688 -21.363281 17.75 -21.03125 17.65625 -20.65625 C 17.5625 -20.269531 17.4375 -19.890625 17.28125 -19.515625 C 17.070312 -18.960938 16.84375 -18.46875 16.59375 -18.03125 C 16.34375 -17.59375 16.144531 -17.375 16 -17.375 C 15.75 -17.382812 15.625 -17.550781 15.625 -17.875 C 15.625 -18.195312 15.738281 -18.609375 15.96875 -19.109375 C 16.238281 -19.660156 16.410156 -20.234375 16.484375 -20.828125 C 16.554688 -21.398438 16.5 -21.757812 16.3125 -21.90625 C 16.0625 -22.09375 15.40625 -21.851562 14.34375 -21.1875 C 13.289062 -20.507812 12.25 -19.664062 11.21875 -18.65625 C 10.3125 -17.738281 9.425781 -16.71875 8.5625 -15.59375 C 7.707031 -14.46875 6.929688 -13.328125 6.234375 -12.171875 C 5.773438 -11.410156 5.351562 -10.65625 4.96875 -9.90625 C 4.59375 -9.164062 4.257812 -8.441406 3.96875 -7.734375 C 3.457031 -6.460938 3.125 -5.3125 2.96875 -4.28125 C 2.820312 -3.269531 2.9375 -2.535156 3.3125 -2.078125 C 3.59375 -1.703125 3.90625 -1.515625 4.25 -1.515625 C 4.59375 -1.492188 5.222656 -1.644531 6.140625 -1.96875 C 6.960938 -2.257812 7.828125 -2.679688 8.734375 -3.234375 C 9.648438 -3.765625 10.566406 -4.375 11.484375 -5.0625 C 12.078125 -5.507812 12.648438 -5.972656 13.203125 -6.453125 C 13.753906 -6.953125 14.265625 -7.4375 14.734375 -7.90625 C 15.648438 -8.820312 16.40625 -9.707031 17 -10.5625 C 17.582031 -11.40625 17.894531 -12.125 17.9375 -12.71875 C 17.957031 -12.863281 17.921875 -13.050781 17.828125 -13.28125 C 17.742188 -13.488281 17.640625 -13.671875 17.515625 -13.828125 C 17.285156 -14.085938 16.941406 -14.21875 16.484375 -14.21875 C 16.046875 -14.238281 15.53125 -14.15625 14.9375 -13.96875 C 13.832031 -13.601562 12.578125 -12.925781 11.171875 -11.9375 C 9.765625 -10.945312 8.429688 -9.765625 7.171875 -8.390625 C 5.929688 -7.023438 5.195312 -6.351562 4.96875 -6.375 C 4.757812 -6.375 5.023438 -7.066406 5.765625 -8.453125 C 5.941406 -8.796875 6.179688 -9.160156 6.484375 -9.546875 C 6.804688 -9.941406 7.160156 -10.347656 7.546875 -10.765625 C 8.265625 -11.523438 9.070312 -12.269531 9.96875 -13 C 10.84375 -13.71875 11.660156 -14.28125 12.421875 -14.6875 C 13.410156 -15.195312 14.316406 -15.535156 15.140625 -15.703125 C 15.972656 -15.878906 16.6875 -15.898438 17.28125 -15.765625 C 18.382812 -15.515625 19.050781 -14.800781 19.28125 -13.625 C 19.320312 -13.414062 19.34375 -13.195312 19.34375 -12.96875 C 19.34375 -11.90625 18.929688 -10.617188 18.109375 -9.109375 C 17.722656 -8.460938 17.25 -7.78125 16.6875 -7.0625 C 16.113281 -6.351562 15.472656 -5.65625 14.765625 -4.96875 C 13.472656 -3.695312 12.054688 -2.535156 10.515625 -1.484375 C 8.992188 -0.441406 7.613281 0.257812 6.375 0.625 C 5.664062 0.832031 4.953125 0.945312 4.234375 0.96875 L 4.078125 0.96875 C 3.453125 0.96875 2.957031 0.875 2.59375 0.6875 Z M 2.59375 0.6875 "/></g></g></g><g fill="#859994" fill-opacity="1"><g transform="translate(91.658165, 45.490114)"><g><path d="M 9.734375 -11.03125 C 10.054688 -10.832031 10.238281 -10.59375 10.28125 -10.3125 C 10.300781 -10.03125 10.175781 -9.523438 9.90625 -8.796875 C 9.550781 -7.785156 9.332031 -7.070312 9.25 -6.65625 C 9.175781 -6.21875 9.21875 -5.894531 9.375 -5.6875 C 9.601562 -5.382812 10.285156 -5.328125 11.421875 -5.515625 C 12.566406 -5.703125 14.28125 -6.160156 16.5625 -6.890625 C 17.6875 -7.265625 18.753906 -7.597656 19.765625 -7.890625 C 20.773438 -8.148438 21.414062 -8.300781 21.6875 -8.34375 C 21.894531 -8.363281 22.21875 -8.398438 22.65625 -8.453125 C 22.539062 -8.359375 22.359375 -8.207031 22.109375 -8 C 21.878906 -7.789062 21.546875 -7.550781 21.109375 -7.28125 C 20.648438 -7.03125 20.132812 -6.765625 19.5625 -6.484375 C 18.5 -5.953125 17.320312 -5.4375 16.03125 -4.9375 C 14.726562 -4.445312 13.601562 -4.085938 12.65625 -3.859375 C 11.625 -3.609375 10.863281 -3.472656 10.375 -3.453125 L 10.28125 -3.453125 C 9.800781 -3.453125 9.351562 -3.546875 8.9375 -3.734375 C 8.25 -4.046875 7.800781 -4.476562 7.59375 -5.03125 C 7.382812 -5.601562 7.40625 -6.363281 7.65625 -7.3125 C 7.75 -7.632812 7.84375 -7.929688 7.9375 -8.203125 C 8.050781 -8.441406 8.097656 -8.59375 8.078125 -8.65625 C 8.066406 -8.707031 7.835938 -8.601562 7.390625 -8.34375 C 6.972656 -8.09375 6.472656 -7.785156 5.890625 -7.421875 C 3.867188 -6.179688 2.257812 -5.410156 1.0625 -5.109375 C -0.144531 -4.804688 -0.925781 -4.929688 -1.28125 -5.484375 C -1.4375 -5.710938 -1.515625 -5.894531 -1.515625 -6.03125 L -1.515625 -6.0625 C -1.515625 -6.1875 -1.445312 -6.410156 -1.3125 -6.734375 C -1.144531 -7.171875 -0.785156 -7.628906 -0.234375 -8.109375 C 0.316406 -8.585938 0.945312 -9 1.65625 -9.34375 C 2.039062 -9.53125 2.441406 -9.660156 2.859375 -9.734375 C 3.273438 -9.796875 3.894531 -9.835938 4.71875 -9.859375 C 5.644531 -9.878906 6.28125 -9.925781 6.625 -10 C 6.988281 -10.070312 7.457031 -10.257812 8.03125 -10.5625 C 8.40625 -10.78125 8.707031 -10.925781 8.9375 -11 C 9.125 -11.070312 9.285156 -11.109375 9.421875 -11.109375 L 9.453125 -11.109375 C 9.515625 -11.109375 9.5625 -11.097656 9.59375 -11.078125 C 9.632812 -11.054688 9.679688 -11.039062 9.734375 -11.03125 Z M 4.234375 -8.796875 C 3.617188 -8.679688 2.988281 -8.507812 2.34375 -8.28125 C 1.71875 -8.050781 1.175781 -7.738281 0.71875 -7.34375 C 0.144531 -6.84375 -0.140625 -6.519531 -0.140625 -6.375 C -0.117188 -6.332031 -0.0820312 -6.300781 -0.03125 -6.28125 C -0.0078125 -6.257812 0.0195312 -6.25 0.0625 -6.25 C 0.363281 -6.269531 1.03125 -6.53125 2.0625 -7.03125 C 3.257812 -7.601562 4.113281 -8.050781 4.625 -8.375 C 4.914062 -8.539062 5.0625 -8.660156 5.0625 -8.734375 C 5.039062 -8.816406 4.925781 -8.859375 4.71875 -8.859375 C 4.65625 -8.859375 4.585938 -8.847656 4.515625 -8.828125 C 4.421875 -8.828125 4.328125 -8.816406 4.234375 -8.796875 Z M 4.234375 -8.796875 "/></g></g></g><g fill="#859994" fill-opacity="1"><g transform="translate(113.310864, 45.490114)"><g><path d="M 15.078125 -23.65625 C 15.160156 -23.175781 15.046875 -22.566406 14.734375 -21.828125 C 14.429688 -21.078125 13.984375 -20.273438 13.390625 -19.421875 C 12.304688 -17.804688 10.863281 -16.113281 9.0625 -14.34375 C 7.269531 -12.59375 5.445312 -11.164062 3.59375 -10.0625 C 2.851562 -9.613281 2.359375 -9.238281 2.109375 -8.9375 C 1.867188 -8.65625 1.546875 -8.066406 1.140625 -7.171875 C 0.910156 -6.640625 0.710938 -6.160156 0.546875 -5.734375 C 0.390625 -5.296875 0.320312 -5.039062 0.34375 -4.96875 C 0.34375 -4.894531 0.445312 -4.953125 0.65625 -5.140625 C 0.863281 -5.328125 1.113281 -5.582031 1.40625 -5.90625 C 2.375 -7.070312 3.363281 -7.882812 4.375 -8.34375 C 5.363281 -8.820312 6.148438 -8.847656 6.734375 -8.421875 C 7.097656 -8.179688 7.316406 -7.8125 7.390625 -7.3125 C 7.472656 -6.832031 7.445312 -6.40625 7.3125 -6.03125 C 7.21875 -5.820312 7.078125 -5.59375 6.890625 -5.34375 C 6.710938 -5.09375 6.519531 -4.851562 6.3125 -4.625 C 6.007812 -4.300781 5.734375 -4.023438 5.484375 -3.796875 C 5.234375 -3.546875 5.140625 -3.429688 5.203125 -3.453125 C 5.234375 -3.453125 5.351562 -3.492188 5.5625 -3.578125 C 5.757812 -3.628906 6.03125 -3.722656 6.375 -3.859375 C 6.957031 -4.066406 7.707031 -4.359375 8.625 -4.734375 C 9.539062 -5.117188 10.445312 -5.550781 11.34375 -6.03125 C 12.707031 -6.75 13.773438 -7.335938 14.546875 -7.796875 C 15.304688 -8.234375 15.75 -8.460938 15.875 -8.484375 C 16.050781 -8.523438 16.140625 -8.492188 16.140625 -8.390625 C 16.140625 -8.265625 15.96875 -8.007812 15.625 -7.625 C 15.050781 -6.976562 14.222656 -6.253906 13.140625 -5.453125 C 12.078125 -4.648438 10.859375 -3.957031 9.484375 -3.375 C 8.109375 -2.800781 6.75 -2.320312 5.40625 -1.9375 C 4.695312 -1.726562 4.007812 -1.550781 3.34375 -1.40625 C 2.675781 -1.25 2.066406 -1.132812 1.515625 -1.0625 C 1.035156 -0.96875 0.671875 -0.851562 0.421875 -0.71875 C 0.160156 -0.582031 -0.09375 -0.367188 -0.34375 -0.078125 C -0.707031 0.335938 -1.007812 0.59375 -1.25 0.6875 C -1.351562 0.726562 -1.441406 0.75 -1.515625 0.75 C -1.703125 0.75 -1.882812 0.679688 -2.0625 0.546875 C -2.320312 0.367188 -2.441406 0.0703125 -2.421875 -0.34375 L -2.421875 -0.59375 C -2.367188 -1.132812 -2.078125 -2.234375 -1.546875 -3.890625 C -0.554688 -7.109375 0.703125 -10.144531 2.234375 -13 C 3.753906 -15.875 5.378906 -18.300781 7.109375 -20.28125 C 8.140625 -21.425781 9.226562 -22.4375 10.375 -23.3125 C 11.488281 -24.1875 12.363281 -24.671875 13 -24.765625 C 13.113281 -24.785156 13.226562 -24.796875 13.34375 -24.796875 C 13.664062 -24.796875 14 -24.707031 14.34375 -24.53125 C 14.78125 -24.300781 15.023438 -24.007812 15.078125 -23.65625 Z M 10.109375 -20.796875 C 9.648438 -20.335938 9.128906 -19.773438 8.546875 -19.109375 C 7.972656 -18.421875 7.410156 -17.726562 6.859375 -17.03125 C 6.035156 -15.957031 5.359375 -15.003906 4.828125 -14.171875 C 4.441406 -13.578125 4.25 -13.195312 4.25 -13.03125 C 4.25 -12.96875 4.28125 -12.9375 4.34375 -12.9375 L 4.375 -12.9375 C 4.445312 -12.957031 4.738281 -13.207031 5.25 -13.6875 C 5.769531 -14.144531 6.363281 -14.707031 7.03125 -15.375 C 9.007812 -17.3125 10.503906 -18.898438 11.515625 -20.140625 C 12.460938 -21.296875 12.9375 -22.085938 12.9375 -22.515625 C 12.9375 -22.523438 12.925781 -22.539062 12.90625 -22.5625 C 12.90625 -22.601562 12.890625 -22.632812 12.859375 -22.65625 L 12.734375 -22.65625 C 12.546875 -22.632812 12.195312 -22.441406 11.6875 -22.078125 C 11.1875 -21.734375 10.660156 -21.304688 10.109375 -20.796875 Z M 2.578125 -4.578125 C 2.304688 -4.171875 2.171875 -3.921875 2.171875 -3.828125 C 2.171875 -3.804688 2.179688 -3.796875 2.203125 -3.796875 L 2.234375 -3.796875 C 2.347656 -3.796875 2.679688 -4.003906 3.234375 -4.421875 C 3.835938 -4.898438 4.300781 -5.332031 4.625 -5.71875 C 4.851562 -6 4.976562 -6.207031 5 -6.34375 C 5 -6.394531 4.976562 -6.429688 4.9375 -6.453125 C 4.914062 -6.472656 4.890625 -6.484375 4.859375 -6.484375 L 4.765625 -6.484375 C 4.535156 -6.441406 4.1875 -6.222656 3.71875 -5.828125 C 3.257812 -5.441406 2.878906 -5.023438 2.578125 -4.578125 Z M 2.578125 -4.578125 "/></g></g></g><g fill="#859994" fill-opacity="1"><g transform="translate(128.993364, 45.490114)"><g><path d="M 4.40625 -13.171875 C 4.457031 -12.847656 4.472656 -12.4375 4.453125 -11.9375 C 4.429688 -11.445312 4.140625 -10.882812 3.578125 -10.25 C 3.347656 -10.039062 3.144531 -9.863281 2.96875 -9.71875 C 2.78125 -9.582031 2.710938 -9.484375 2.765625 -9.421875 C 2.804688 -9.390625 2.929688 -9.390625 3.140625 -9.421875 C 3.328125 -9.460938 3.679688 -9.539062 4.203125 -9.65625 C 5.398438 -9.9375 6.320312 -10.078125 6.96875 -10.078125 C 7.59375 -10.066406 8.039062 -9.914062 8.3125 -9.625 C 8.613281 -9.28125 8.765625 -8.890625 8.765625 -8.453125 C 8.742188 -7.992188 8.507812 -7.335938 8.0625 -6.484375 C 7.8125 -6.023438 7.492188 -5.492188 7.109375 -4.890625 C 6.734375 -4.273438 6.273438 -3.5625 5.734375 -2.75 C 5.203125 -1.96875 4.765625 -1.269531 4.421875 -0.65625 C 4.078125 -0.0507812 3.9375 0.28125 4 0.34375 C 4.09375 0.4375 4.710938 0.09375 5.859375 -0.6875 C 6.984375 -1.46875 8.296875 -2.429688 9.796875 -3.578125 C 10.992188 -4.460938 12.003906 -5.210938 12.828125 -5.828125 C 13.640625 -6.453125 14.304688 -6.957031 14.828125 -7.34375 C 15.816406 -8.0625 16.4375 -8.488281 16.6875 -8.625 C 16.914062 -8.757812 17.054688 -8.796875 17.109375 -8.734375 C 17.128906 -8.722656 17.140625 -8.707031 17.140625 -8.6875 C 17.140625 -8.625 17.082031 -8.519531 16.96875 -8.375 C 16.8125 -8.175781 16.601562 -7.925781 16.34375 -7.625 C 15.820312 -7.070312 15.125 -6.367188 14.25 -5.515625 C 13.375 -4.671875 12.460938 -3.8125 11.515625 -2.9375 C 10.546875 -2.0625 9.59375 -1.242188 8.65625 -0.484375 C 7.738281 0.253906 7.003906 0.796875 6.453125 1.140625 C 5.878906 1.484375 5.394531 1.75 5 1.9375 C 4.601562 2.144531 4.257812 2.300781 3.96875 2.40625 C 3.570312 2.550781 3.269531 2.625 3.0625 2.625 C 2.976562 2.625 2.921875 2.613281 2.890625 2.59375 C 2.679688 2.539062 2.523438 2.484375 2.421875 2.421875 C 2.046875 2.273438 1.8125 1.992188 1.71875 1.578125 C 1.625 1.140625 1.6875 0.648438 1.90625 0.109375 C 2.019531 -0.128906 2.335938 -0.679688 2.859375 -1.546875 C 3.390625 -2.398438 3.976562 -3.320312 4.625 -4.3125 C 5.25 -5.28125 5.789062 -6.140625 6.25 -6.890625 C 6.707031 -7.628906 6.9375 -8.023438 6.9375 -8.078125 C 6.9375 -8.253906 6.71875 -8.320312 6.28125 -8.28125 C 5.820312 -8.25 5.234375 -8.125 4.515625 -7.90625 C 4.171875 -7.789062 3.742188 -7.6875 3.234375 -7.59375 C 2.691406 -7.519531 2.234375 -7.472656 1.859375 -7.453125 C 1.265625 -7.429688 0.851562 -7.460938 0.625 -7.546875 C 0.394531 -7.617188 0.148438 -7.816406 -0.109375 -8.140625 C -0.492188 -8.578125 -0.6875 -9.046875 -0.6875 -9.546875 L -0.6875 -9.5625 C -0.6875 -10.082031 -0.476562 -10.75 -0.0625 -11.5625 C 0.375 -12.457031 0.925781 -13.164062 1.59375 -13.6875 C 2.257812 -14.195312 2.851562 -14.453125 3.375 -14.453125 C 3.675781 -14.453125 3.90625 -14.3125 4.0625 -14.03125 C 4.226562 -13.757812 4.34375 -13.472656 4.40625 -13.171875 Z M 1.25 -10.375 C 1.289062 -10.332031 1.34375 -10.320312 1.40625 -10.34375 C 1.5 -10.34375 1.601562 -10.390625 1.71875 -10.484375 C 1.90625 -10.640625 2.09375 -10.835938 2.28125 -11.078125 C 2.507812 -11.390625 2.703125 -11.695312 2.859375 -12 C 2.929688 -12.1875 2.96875 -12.316406 2.96875 -12.390625 C 2.96875 -12.453125 2.945312 -12.484375 2.90625 -12.484375 L 2.890625 -12.484375 C 2.679688 -12.484375 2.382812 -12.242188 2 -11.765625 C 1.601562 -11.234375 1.351562 -10.769531 1.25 -10.375 Z M 1.25 -10.375 "/></g></g></g><g fill="#859994" fill-opacity="1"><g transform="translate(145.390006, 45.490114)"><g><path d="M 0.484375 -4.890625 C 0.0859375 -5.234375 -0.15625 -5.515625 -0.25 -5.734375 C -0.332031 -5.953125 -0.375 -6.285156 -0.375 -6.734375 L -0.375 -6.90625 C -0.375 -7.195312 -0.304688 -7.550781 -0.171875 -7.96875 C -0.0546875 -8.40625 0.0820312 -8.84375 0.25 -9.28125 C 0.539062 -9.945312 0.835938 -10.546875 1.140625 -11.078125 C 1.429688 -11.535156 1.648438 -11.773438 1.796875 -11.796875 L 1.859375 -11.796875 C 1.929688 -11.753906 2 -11.71875 2.0625 -11.6875 C 2.113281 -11.644531 2.140625 -11.601562 2.140625 -11.5625 C 2.140625 -11.550781 2.09375 -11.316406 2 -10.859375 C 1.90625 -10.398438 1.789062 -9.851562 1.65625 -9.21875 C 1.375 -7.90625 1.304688 -7.078125 1.453125 -6.734375 C 1.609375 -6.398438 2.101562 -6.234375 2.9375 -6.234375 C 3.226562 -6.234375 3.984375 -6.328125 5.203125 -6.515625 C 6.398438 -6.722656 7.703125 -6.960938 9.109375 -7.234375 C 12.066406 -7.816406 14.144531 -8.195312 15.34375 -8.375 C 16.539062 -8.539062 17.140625 -8.53125 17.140625 -8.34375 C 17.140625 -8.269531 17.023438 -8.164062 16.796875 -8.03125 C 16.585938 -7.894531 16.300781 -7.75 15.9375 -7.59375 C 15.25 -7.289062 14.351562 -6.957031 13.25 -6.59375 C 12.125 -6.238281 10.972656 -5.894531 9.796875 -5.5625 C 8.578125 -5.226562 7.394531 -4.9375 6.25 -4.6875 C 5.132812 -4.4375 4.234375 -4.289062 3.546875 -4.25 C 2.910156 -4.21875 2.421875 -4.203125 2.078125 -4.203125 C 1.816406 -4.203125 1.628906 -4.210938 1.515625 -4.234375 C 1.265625 -4.285156 0.921875 -4.503906 0.484375 -4.890625 Z M 2.34375 -13.546875 C 2.269531 -13.671875 2.234375 -13.847656 2.234375 -14.078125 C 2.234375 -14.304688 2.269531 -14.59375 2.34375 -14.9375 C 2.457031 -15.644531 2.628906 -16.125 2.859375 -16.375 C 3.046875 -16.613281 3.265625 -16.734375 3.515625 -16.734375 C 3.660156 -16.734375 3.832031 -16.675781 4.03125 -16.5625 C 4.375 -16.351562 4.546875 -16.0625 4.546875 -15.6875 C 4.546875 -15.570312 4.523438 -15.457031 4.484375 -15.34375 C 4.410156 -15 4.15625 -14.539062 3.71875 -13.96875 C 3.28125 -13.414062 2.972656 -13.140625 2.796875 -13.140625 C 2.742188 -13.140625 2.671875 -13.175781 2.578125 -13.25 C 2.472656 -13.332031 2.394531 -13.429688 2.34375 -13.546875 Z M 2.34375 -13.546875 "/></g></g></g><g fill="#859994" fill-opacity="1"><g transform="translate(161.786649, 45.490114)"><g><path d="M 6.28125 -9.28125 C 6.03125 -8.957031 5.546875 -8.679688 4.828125 -8.453125 C 4.097656 -8.222656 3.296875 -8.082031 2.421875 -8.03125 C 1.953125 -8.007812 1.613281 -7.953125 1.40625 -7.859375 C 1.1875 -7.765625 1.015625 -7.59375 0.890625 -7.34375 C 0.617188 -6.863281 0.503906 -6.460938 0.546875 -6.140625 C 0.578125 -5.816406 0.753906 -5.53125 1.078125 -5.28125 C 1.921875 -4.84375 3.03125 -4.691406 4.40625 -4.828125 C 5.769531 -4.960938 7.660156 -5.597656 10.078125 -6.734375 C 11.265625 -7.285156 12.296875 -7.726562 13.171875 -8.0625 C 14.046875 -8.394531 14.503906 -8.5625 14.546875 -8.5625 C 14.554688 -8.5625 14.570312 -8.523438 14.59375 -8.453125 C 14.613281 -8.398438 14.625 -8.332031 14.625 -8.25 L 14.625 -8.203125 C 14.601562 -7.890625 14.164062 -7.421875 13.3125 -6.796875 C 12.457031 -6.148438 11.457031 -5.53125 10.3125 -4.9375 C 9.6875 -4.613281 9.046875 -4.3125 8.390625 -4.03125 C 7.742188 -3.757812 7.128906 -3.539062 6.546875 -3.375 C 5.453125 -3.0625 4.441406 -2.90625 3.515625 -2.90625 L 3.171875 -2.90625 C 2.140625 -2.96875 1.347656 -3.140625 0.796875 -3.421875 C 0.304688 -3.671875 -0.09375 -4.003906 -0.40625 -4.421875 C -0.726562 -4.847656 -0.914062 -5.296875 -0.96875 -5.765625 L -0.96875 -5.96875 C -0.96875 -6.257812 -0.910156 -6.566406 -0.796875 -6.890625 C -0.660156 -7.285156 -0.460938 -7.679688 -0.203125 -8.078125 C 0.296875 -8.835938 0.953125 -9.535156 1.765625 -10.171875 C 2.585938 -10.796875 3.425781 -11.203125 4.28125 -11.390625 C 4.457031 -11.429688 4.628906 -11.460938 4.796875 -11.484375 L 5.28125 -11.484375 C 5.925781 -11.421875 6.363281 -11.179688 6.59375 -10.765625 C 6.820312 -10.328125 6.71875 -9.832031 6.28125 -9.28125 Z M 3.6875 -9.890625 C 3.320312 -9.691406 3.015625 -9.488281 2.765625 -9.28125 C 2.640625 -9.1875 2.578125 -9.113281 2.578125 -9.0625 C 2.578125 -9.019531 2.613281 -8.988281 2.6875 -8.96875 L 2.765625 -8.96875 C 2.878906 -8.96875 3.0625 -8.976562 3.3125 -9 C 3.613281 -9.039062 4.023438 -9.179688 4.546875 -9.421875 C 4.710938 -9.515625 4.875 -9.660156 5.03125 -9.859375 C 5.082031 -9.953125 5.109375 -10.019531 5.109375 -10.0625 C 5.109375 -10.113281 5.0625 -10.148438 4.96875 -10.171875 L 4.890625 -10.171875 C 4.785156 -10.171875 4.648438 -10.160156 4.484375 -10.140625 C 4.273438 -10.117188 4.007812 -10.035156 3.6875 -9.890625 Z M 3.6875 -9.890625 "/></g></g></g><g fill="#859994" fill-opacity="1"><g transform="translate(175.840908, 45.490114)"><g><path d="M 11.71875 -22.421875 C 11.582031 -21.929688 11.367188 -21.378906 11.078125 -20.765625 C 10.796875 -20.160156 10.460938 -19.523438 10.078125 -18.859375 C 9.359375 -17.597656 8.492188 -16.289062 7.484375 -14.9375 C 6.472656 -13.582031 5.40625 -12.335938 4.28125 -11.203125 C 3.269531 -10.148438 2.566406 -9.367188 2.171875 -8.859375 C 1.785156 -8.328125 1.5 -7.785156 1.3125 -7.234375 C 0.914062 -6.109375 0.6875 -5.269531 0.625 -4.71875 C 0.550781 -4.164062 0.628906 -3.847656 0.859375 -3.765625 C 0.972656 -3.734375 1.378906 -3.867188 2.078125 -4.171875 C 2.785156 -4.492188 3.625 -4.921875 4.59375 -5.453125 C 6.539062 -6.535156 8.171875 -7.328125 9.484375 -7.828125 C 10.796875 -8.316406 11.832031 -8.535156 12.59375 -8.484375 C 13 -8.441406 13.203125 -8.382812 13.203125 -8.3125 C 13.179688 -8.21875 13.066406 -8.101562 12.859375 -7.96875 C 12.648438 -7.832031 12.390625 -7.691406 12.078125 -7.546875 C 11.753906 -7.367188 11.519531 -7.234375 11.375 -7.140625 C 10.738281 -6.796875 9.925781 -6.335938 8.9375 -5.765625 C 7.96875 -5.191406 7.113281 -4.679688 6.375 -4.234375 C 5.625 -3.773438 4.890625 -3.332031 4.171875 -2.90625 C 3.441406 -2.488281 2.9375 -2.210938 2.65625 -2.078125 C 1.96875 -1.773438 1.332031 -1.625 0.75 -1.625 L 0.65625 -1.625 C 0.03125 -1.644531 -0.441406 -1.828125 -0.765625 -2.171875 C -1.109375 -2.535156 -1.28125 -3.085938 -1.28125 -3.828125 C -1.28125 -4.359375 -1.1875 -4.992188 -1 -5.734375 C -0.5625 -7.472656 0.390625 -9.789062 1.859375 -12.6875 C 2.984375 -14.894531 4.109375 -16.863281 5.234375 -18.59375 C 6.347656 -20.34375 7.363281 -21.710938 8.28125 -22.703125 C 8.78125 -23.242188 9.238281 -23.664062 9.65625 -23.96875 C 10.050781 -24.25 10.40625 -24.390625 10.71875 -24.390625 C 11.226562 -24.390625 11.566406 -24.226562 11.734375 -23.90625 C 11.890625 -23.582031 11.882812 -23.085938 11.71875 -22.421875 Z M 4.578125 -14.859375 C 4.234375 -14.203125 3.9375 -13.609375 3.6875 -13.078125 C 3.4375 -12.546875 3.3125 -12.222656 3.3125 -12.109375 C 3.3125 -12.054688 3.34375 -12.03125 3.40625 -12.03125 C 3.53125 -12.03125 3.867188 -12.332031 4.421875 -12.9375 C 5.148438 -13.757812 5.953125 -14.796875 6.828125 -16.046875 C 7.171875 -16.523438 7.503906 -17.019531 7.828125 -17.53125 C 8.148438 -18.050781 8.453125 -18.554688 8.734375 -19.046875 C 9.253906 -19.960938 9.664062 -20.765625 9.96875 -21.453125 C 10.15625 -21.929688 10.25 -22.253906 10.25 -22.421875 C 10.25 -22.492188 10.234375 -22.539062 10.203125 -22.5625 L 10.109375 -22.5625 C 9.972656 -22.5625 9.789062 -22.457031 9.5625 -22.25 C 9.320312 -22.039062 9.046875 -21.742188 8.734375 -21.359375 C 8.148438 -20.660156 7.484375 -19.738281 6.734375 -18.59375 C 5.992188 -17.4375 5.273438 -16.191406 4.578125 -14.859375 Z M 4.578125 -14.859375 "/></g></g></g><g fill="#859994" fill-opacity="1"><g transform="translate(188.324057, 45.490114)"><g><path d="M 11.71875 -22.421875 C 11.582031 -21.929688 11.367188 -21.378906 11.078125 -20.765625 C 10.796875 -20.160156 10.460938 -19.523438 10.078125 -18.859375 C 9.359375 -17.597656 8.492188 -16.289062 7.484375 -14.9375 C 6.472656 -13.582031 5.40625 -12.335938 4.28125 -11.203125 C 3.269531 -10.148438 2.566406 -9.367188 2.171875 -8.859375 C 1.785156 -8.328125 1.5 -7.785156 1.3125 -7.234375 C 0.914062 -6.109375 0.6875 -5.269531 0.625 -4.71875 C 0.550781 -4.164062 0.628906 -3.847656 0.859375 -3.765625 C 0.972656 -3.734375 1.378906 -3.867188 2.078125 -4.171875 C 2.785156 -4.492188 3.625 -4.921875 4.59375 -5.453125 C 6.539062 -6.535156 8.171875 -7.328125 9.484375 -7.828125 C 10.796875 -8.316406 11.832031 -8.535156 12.59375 -8.484375 C 13 -8.441406 13.203125 -8.382812 13.203125 -8.3125 C 13.179688 -8.21875 13.066406 -8.101562 12.859375 -7.96875 C 12.648438 -7.832031 12.390625 -7.691406 12.078125 -7.546875 C 11.753906 -7.367188 11.519531 -7.234375 11.375 -7.140625 C 10.738281 -6.796875 9.925781 -6.335938 8.9375 -5.765625 C 7.96875 -5.191406 7.113281 -4.679688 6.375 -4.234375 C 5.625 -3.773438 4.890625 -3.332031 4.171875 -2.90625 C 3.441406 -2.488281 2.9375 -2.210938 2.65625 -2.078125 C 1.96875 -1.773438 1.332031 -1.625 0.75 -1.625 L 0.65625 -1.625 C 0.03125 -1.644531 -0.441406 -1.828125 -0.765625 -2.171875 C -1.109375 -2.535156 -1.28125 -3.085938 -1.28125 -3.828125 C -1.28125 -4.359375 -1.1875 -4.992188 -1 -5.734375 C -0.5625 -7.472656 0.390625 -9.789062 1.859375 -12.6875 C 2.984375 -14.894531 4.109375 -16.863281 5.234375 -18.59375 C 6.347656 -20.34375 7.363281 -21.710938 8.28125 -22.703125 C 8.78125 -23.242188 9.238281 -23.664062 9.65625 -23.96875 C 10.050781 -24.25 10.40625 -24.390625 10.71875 -24.390625 C 11.226562 -24.390625 11.566406 -24.226562 11.734375 -23.90625 C 11.890625 -23.582031 11.882812 -23.085938 11.71875 -22.421875 Z M 4.578125 -14.859375 C 4.234375 -14.203125 3.9375 -13.609375 3.6875 -13.078125 C 3.4375 -12.546875 3.3125 -12.222656 3.3125 -12.109375 C 3.3125 -12.054688 3.34375 -12.03125 3.40625 -12.03125 C 3.53125 -12.03125 3.867188 -12.332031 4.421875 -12.9375 C 5.148438 -13.757812 5.953125 -14.796875 6.828125 -16.046875 C 7.171875 -16.523438 7.503906 -17.019531 7.828125 -17.53125 C 8.148438 -18.050781 8.453125 -18.554688 8.734375 -19.046875 C 9.253906 -19.960938 9.664062 -20.765625 9.96875 -21.453125 C 10.15625 -21.929688 10.25 -22.253906 10.25 -22.421875 C 10.25 -22.492188 10.234375 -22.539062 10.203125 -22.5625 L 10.109375 -22.5625 C 9.972656 -22.5625 9.789062 -22.457031 9.5625 -22.25 C 9.320312 -22.039062 9.046875 -21.742188 8.734375 -21.359375 C 8.148438 -20.660156 7.484375 -19.738281 6.734375 -18.59375 C 5.992188 -17.4375 5.273438 -16.191406 4.578125 -14.859375 Z M 4.578125 -14.859375 "/></g></g></g><g fill="#859994" fill-opacity="1"><g transform="translate(200.807206, 45.490114)"><g><path d="M 9.734375 -11.03125 C 10.054688 -10.832031 10.238281 -10.59375 10.28125 -10.3125 C 10.300781 -10.03125 10.175781 -9.523438 9.90625 -8.796875 C 9.550781 -7.785156 9.332031 -7.070312 9.25 -6.65625 C 9.175781 -6.21875 9.21875 -5.894531 9.375 -5.6875 C 9.601562 -5.382812 10.285156 -5.328125 11.421875 -5.515625 C 12.566406 -5.703125 14.28125 -6.160156 16.5625 -6.890625 C 17.6875 -7.265625 18.753906 -7.597656 19.765625 -7.890625 C 20.773438 -8.148438 21.414062 -8.300781 21.6875 -8.34375 C 21.894531 -8.363281 22.21875 -8.398438 22.65625 -8.453125 C 22.539062 -8.359375 22.359375 -8.207031 22.109375 -8 C 21.878906 -7.789062 21.546875 -7.550781 21.109375 -7.28125 C 20.648438 -7.03125 20.132812 -6.765625 19.5625 -6.484375 C 18.5 -5.953125 17.320312 -5.4375 16.03125 -4.9375 C 14.726562 -4.445312 13.601562 -4.085938 12.65625 -3.859375 C 11.625 -3.609375 10.863281 -3.472656 10.375 -3.453125 L 10.28125 -3.453125 C 9.800781 -3.453125 9.351562 -3.546875 8.9375 -3.734375 C 8.25 -4.046875 7.800781 -4.476562 7.59375 -5.03125 C 7.382812 -5.601562 7.40625 -6.363281 7.65625 -7.3125 C 7.75 -7.632812 7.84375 -7.929688 7.9375 -8.203125 C 8.050781 -8.441406 8.097656 -8.59375 8.078125 -8.65625 C 8.066406 -8.707031 7.835938 -8.601562 7.390625 -8.34375 C 6.972656 -8.09375 6.472656 -7.785156 5.890625 -7.421875 C 3.867188 -6.179688 2.257812 -5.410156 1.0625 -5.109375 C -0.144531 -4.804688 -0.925781 -4.929688 -1.28125 -5.484375 C -1.4375 -5.710938 -1.515625 -5.894531 -1.515625 -6.03125 L -1.515625 -6.0625 C -1.515625 -6.1875 -1.445312 -6.410156 -1.3125 -6.734375 C -1.144531 -7.171875 -0.785156 -7.628906 -0.234375 -8.109375 C 0.316406 -8.585938 0.945312 -9 1.65625 -9.34375 C 2.039062 -9.53125 2.441406 -9.660156 2.859375 -9.734375 C 3.273438 -9.796875 3.894531 -9.835938 4.71875 -9.859375 C 5.644531 -9.878906 6.28125 -9.925781 6.625 -10 C 6.988281 -10.070312 7.457031 -10.257812 8.03125 -10.5625 C 8.40625 -10.78125 8.707031 -10.925781 8.9375 -11 C 9.125 -11.070312 9.285156 -11.109375 9.421875 -11.109375 L 9.453125 -11.109375 C 9.515625 -11.109375 9.5625 -11.097656 9.59375 -11.078125 C 9.632812 -11.054688 9.679688 -11.039062 9.734375 -11.03125 Z M 4.234375 -8.796875 C 3.617188 -8.679688 2.988281 -8.507812 2.34375 -8.28125 C 1.71875 -8.050781 1.175781 -7.738281 0.71875 -7.34375 C 0.144531 -6.84375 -0.140625 -6.519531 -0.140625 -6.375 C -0.117188 -6.332031 -0.0820312 -6.300781 -0.03125 -6.28125 C -0.0078125 -6.257812 0.0195312 -6.25 0.0625 -6.25 C 0.363281 -6.269531 1.03125 -6.53125 2.0625 -7.03125 C 3.257812 -7.601562 4.113281 -8.050781 4.625 -8.375 C 4.914062 -8.539062 5.0625 -8.660156 5.0625 -8.734375 C 5.039062 -8.816406 4.925781 -8.859375 4.71875 -8.859375 C 4.65625 -8.859375 4.585938 -8.847656 4.515625 -8.828125 C 4.421875 -8.828125 4.328125 -8.816406 4.234375 -8.796875 Z M 4.234375 -8.796875 "/></g></g></g></svg>